<?xml version="1.0" encoding="UTF-8" standalone="no"?>
<!-- Created with Inkscape (http://www.inkscape.org/) -->

<svg
   xmlns:dc="http://purl.org/dc/elements/1.1/"
   xmlns:cc="http://creativecommons.org/ns#"
   xmlns:rdf="http://www.w3.org/1999/02/22-rdf-syntax-ns#"
   xmlns:svg="http://www.w3.org/2000/svg"
   xmlns="http://www.w3.org/2000/svg"
   xmlns:sodipodi="http://sodipodi.sourceforge.net/DTD/sodipodi-0.dtd"
   xmlns:inkscape="http://www.inkscape.org/namespaces/inkscape"
   version="1.1"
   id="svg812"
   xml:space="preserve"
   width="390.09067"
   height="124.36294"
   viewBox="0 0 390.09067 124.36294"
   sodipodi:docname="Vineyard Vines.svg"
   inkscape:version="0.92.2 (5c3e80d, 2017-08-06)"
   inkscape:export-filename="D:\Google Drive\Logos\Shopping\Vineyard Vines.png"
   inkscape:export-xdpi="385.96707"
   inkscape:export-ydpi="385.96707" fill="#b08d3f"><metadata
     id="metadata818"><rdf:RDF><cc:Work
         rdf:about=""><dc:format>image/svg+xml</dc:format><dc:type
           rdf:resource="http://purl.org/dc/dcmitype/StillImage" /><dc:title></dc:title></cc:Work></rdf:RDF></metadata><defs
     id="defs816"><clipPath
       clipPathUnits="userSpaceOnUse"
       id="clipPath828"><path
         d="m 16.5,12 h 585 v 738 h -585 z"
         id="path826"
         inkscape:connector-curvature="0" /></clipPath><clipPath
       clipPathUnits="userSpaceOnUse"
       id="clipPath846"><path
         d="M 162.715,555.228 H 455.284 V 648.5 H 162.715 Z"
         id="path844"
         inkscape:connector-curvature="0" /></clipPath><clipPath
       clipPathUnits="userSpaceOnUse"
       id="clipPath950"><path
         d="M 0,0 H 618 V 762 H 0 Z"
         id="path948"
         inkscape:connector-curvature="0" /></clipPath></defs><sodipodi:namedview
     pagecolor="#e7f1f3"
     bordercolor="#b08d3f"
     borderopacity="1"
     objecttolerance="10"
     gridtolerance="10"
     guidetolerance="10"
     inkscape:pageopacity="0"
     inkscape:pageshadow="2"
     inkscape:window-width="640"
     inkscape:window-height="480"
     id="namedview814"
     showgrid="false"
     inkscape:zoom="0.85137795"
     inkscape:cx="195.04534"
     inkscape:cy="-236.6534"
     inkscape:current-layer="g820" /><g
     id="g820"
     inkscape:groupmode="layer"
     inkscape:label="CustomCatalog_2017"
     transform="matrix(1.3333333,0,0,-1.3333333,-216.95466,864.66692)"><g
       id="g1105"><g
         transform="translate(362.457,646.52)"
         id="g848"><path
           inkscape:connector-curvature="0"
           id="path850"
           style="fill:#e7f1f3;fill-opacity:1;fill-rule:nonzero;stroke:none"
           d="M 0,0 C -0.646,0.753 -1.668,1.058 -2.621,0.781 -3.035,0.662 -3.433,0.532 -3.818,0.41 -4.841,0.08 -5.725,-0.204 -6.605,-0.261 c -1.561,-0.103 -3.258,0.286 -4.71,0.68 -2.858,0.774 -5.423,0.439 -7.457,-0.918 -0.688,0.614 -1.521,1.278 -2.671,1.741 -2.975,1.206 -5.303,0.368 -7.355,-0.372 l -0.131,-0.047 c -0.588,-0.21 -1.151,-0.182 -1.346,-0.106 -0.973,1.101 -2.267,1.526 -3.48,1.101 -2.338,-0.82 -2.184,-3.678 -2.119,-4.9 0.024,-0.388 0.03,-0.79 0.035,-1.217 0.03,-1.7 0.06,-3.625 1.043,-5.52 1.218,-2.332 3.406,-3.896 6.01,-4.303 1.029,-0.163 2.08,-0.068 3.009,0.017 0.265,0.022 0.567,0.049 0.859,0.065 -0.021,-0.094 -0.041,-0.187 -0.059,-0.263 -0.033,-0.157 -0.068,-0.32 -0.099,-0.476 -0.366,-1.851 -0.685,-2.911 -1.509,-3.917 -1.079,-1.318 -2.728,-2.291 -5.044,-2.977 -5.593,-1.666 -8.979,2.528 -13.505,9.114 -0.814,1.186 -1.583,2.303 -2.379,3.354 -5.598,7.377 -12.398,8.399 -20.887,7.663 -2.964,-0.251 -6.018,0.187 -9.251,0.649 -3.833,0.55 -7.797,1.115 -11.729,0.465 -9.325,-1.55 -13.87,-7.813 -12.798,-17.638 0.112,-1.03 0.311,-2.015 0.502,-2.969 0.449,-2.229 0.837,-4.154 0.168,-6.427 -0.533,-1.822 -0.336,-3.566 0.461,-4.743 -0.01,-0.06 -0.019,-0.12 -0.027,-0.17 -0.052,-0.328 -0.111,-0.701 -0.117,-1.097 -0.035,-4.239 5.605,-6.826 7.781,-7.47 5.61,-1.633 11.381,-1.294 16.963,-0.966 l 1.075,0.063 c 4.972,0.273 10.139,0.18 15.136,0.088 2.516,-0.044 5.114,-0.093 7.663,-0.093 l 4.096,-0.036 c 3.852,-0.053 7.491,-0.103 11.947,0.37 5.504,0.58 13.826,1.455 17.391,7.44 2.338,3.958 3.322,9.418 3.571,10.998 0.163,1.064 0.279,2.112 0.391,3.127 0.142,1.289 0.289,2.529 0.513,3.716 2.68,-0.528 4.609,-0.204 7.097,1.039 2.883,1.444 4.415,4.635 5.647,7.199 0.186,0.388 0.361,0.755 0.535,1.102 0.417,0.821 0.738,1.658 1.05,2.469 0.235,0.612 0.457,1.188 0.704,1.716 C 0.789,-1.813 0.645,-0.752 0,0" /></g><g
         transform="translate(329.202,646.913)"
         id="g852"><path
           inkscape:connector-curvature="0"
           id="path854"
           style="fill:#b08d3f;fill-opacity:1;fill-rule:nonzero;stroke:none"
           d="m 0,0 c -1.115,-0.391 -1.192,-1.862 -1.11,-3.391 0,0.006 0.002,-0.012 0,-0.002 l 0.038,-1.273 c 0.026,-1.609 0.053,-3.27 0.872,-4.851 0.992,-1.897 2.776,-3.174 4.901,-3.505 0.846,-0.135 1.758,-0.052 2.638,0.028 0.936,0.085 1.904,0.175 2.558,-0.051 0.227,-0.268 -0.051,-1.55 -0.142,-1.97 L 9.662,-15.463 C 9.255,-17.523 8.86,-18.8 7.837,-20.048 6.562,-21.606 4.671,-22.74 2.055,-23.516 c -7.062,-2.099 -11.19,3.904 -15.18,9.708 l -2.337,3.297 c -5.181,6.826 -11.563,7.763 -19.553,7.071 -3.138,-0.266 -6.418,0.203 -9.596,0.656 -3.72,0.534 -7.566,1.084 -11.268,0.473 -8.538,-1.419 -12.528,-6.946 -11.542,-15.984 l 0.481,-2.833 c 0.467,-2.326 0.91,-4.521 0.136,-7.154 -0.552,-1.888 -0.091,-3.307 0.612,-3.877 -0.012,-0.068 -0.092,-0.574 -0.135,-0.847 l -0.099,-0.879 c -0.027,-3.279 4.951,-5.486 6.697,-6 5.354,-1.559 10.993,-1.229 16.448,-0.908 l 1.076,0.065 c 5.033,0.276 10.226,0.182 15.252,0.091 l 7.634,-0.094 4.117,-0.036 c 3.971,-0.055 7.402,-0.103 11.765,0.362 5.208,0.548 13.077,1.375 16.253,6.708 2.199,3.725 3.141,8.947 3.377,10.458 0,0.003 0.382,3.062 0.382,3.062 0.209,1.891 0.461,3.672 0.924,5.391 3.122,-0.864 4.935,-0.739 7.514,0.549 2.417,1.21 3.768,4.022 4.958,6.501 l 0.548,1.126 0.991,2.332 0.744,1.817 c 0.149,0.361 0.095,0.8 -0.172,1.091 -0.264,0.288 -0.652,0.425 -1.026,0.306 l -1.155,-0.358 c -1.073,-0.344 -2.089,-0.671 -3.153,-0.74 -1.783,-0.119 -3.632,0.304 -5.206,0.731 -3.492,0.944 -5.717,-0.113 -7.102,-1.438 -0.248,0.21 -0.503,0.429 -0.503,0.429 -0.748,0.695 -1.521,1.415 -2.693,1.889 C 8.803,0.437 6.941,-0.233 4.967,-0.945 L 4.835,-0.992 C 3.879,-1.337 2.59,-1.378 1.952,-0.803 1.644,-0.414 0.919,0.322 0,0" /></g><g
         transform="translate(334.723,644.019)"
         id="g856"><path
           inkscape:connector-curvature="0"
           id="path858"
           style="fill:#b08d3f;fill-opacity:1;fill-rule:nonzero;stroke:none"
           d="M 0,0 0.132,0.049 C 2.003,0.721 3.241,1.166 4.963,0.468 5.79,0.135 6.37,-0.405 7.038,-1.027 l 1.367,-1.162 c 0.208,-0.178 0.452,-0.239 0.726,-0.21 0.272,0.026 0.492,0.189 0.662,0.407 1.323,1.692 3.187,2.182 5.7,1.501 1.734,-0.47 3.787,-0.931 5.865,-0.797 0.966,0.063 1.85,0.298 2.712,0.557 -0.058,-0.134 -0.878,-2.076 -0.878,-2.076 -0.002,-0.004 -0.565,-1.16 -0.565,-1.16 -1.051,-2.187 -2.24,-4.666 -4.041,-5.567 -2.225,-1.114 -3.488,-1.279 -7.041,-0.152 -0.526,0.169 -1.09,-0.118 -1.265,-0.642 -0.733,-2.192 -0.988,-4.501 -1.235,-6.735 l -0.373,-2.973 c -0.591,-3.793 -1.757,-7.433 -3.116,-9.735 -2.656,-4.46 -9.92,-5.224 -14.725,-5.729 -4.247,-0.452 -7.619,-0.405 -11.526,-0.352 l -4.144,0.037 -7.598,0.092 c -5.062,0.092 -10.295,0.189 -15.401,-0.094 -0.002,0 -1.083,-0.062 -1.083,-0.062 -5.281,-0.312 -10.745,-0.633 -15.761,0.829 -2.431,0.717 -5.253,2.636 -5.242,4.037 0,-0.005 0.073,0.583 0.073,0.583 0.128,0.799 0.319,2.005 -0.589,2.737 -0.032,0.056 -0.255,0.67 0.055,1.735 0.916,3.112 0.38,5.775 -0.093,8.123 l -0.453,2.653 c -0.876,8.016 2.352,12.52 9.862,13.77 3.393,0.56 6.919,0.056 10.651,-0.477 3.287,-0.472 6.686,-0.959 10.055,-0.67 8.896,0.768 13.709,-0.932 17.768,-6.282 l 2.283,-3.219 c 3.986,-5.8 8.948,-13.019 17.421,-10.502 3.018,0.898 5.232,2.247 6.77,4.126 1.416,1.723 1.872,3.575 2.246,5.481 0.001,0 0.086,0.407 0.086,0.407 0.276,1.271 0.787,3.634 -1.174,4.31 -1.064,0.366 -2.254,0.257 -3.403,0.151 -0.791,-0.071 -1.536,-0.139 -2.139,-0.042 -1.509,0.234 -2.722,1.102 -3.423,2.44 -0.598,1.154 -0.62,2.512 -0.643,3.948 l -0.041,1.355 c -0.009,0.244 -0.016,0.458 -0.016,0.639 0,0.081 0.008,0.096 0.008,0.167 C -3.245,-0.578 -1.325,-0.478 0,0" /></g><g
         transform="translate(280.252,626.62)"
         id="g860"><path
           inkscape:connector-curvature="0"
           id="path862"
           style="fill:#b08d3f;fill-opacity:1;fill-rule:nonzero;stroke:none"
           d="m 0,0 c 0.012,0.013 1.104,1.314 2.532,1.146 1.24,-0.144 2.411,-1.318 3.482,-3.485 0.097,-0.2 0.337,-0.279 0.533,-0.182 0.198,0.099 0.279,0.337 0.182,0.534 C 5.53,0.445 4.146,1.765 2.617,1.941 0.754,2.153 -0.561,0.573 -0.616,0.506 -0.757,0.336 -0.73,0.085 -0.561,-0.056 -0.39,-0.195 -0.139,-0.17 0,0 M 2.9,-2.876 C 2.18,-2.696 1.45,-3.14 1.278,-3.857 1.097,-4.586 0.099,-5.448 2.264,-5.475 c 2.685,-0.037 1.441,0.264 1.617,0.98 0.177,0.718 -0.267,1.443 -0.981,1.619 m 9.201,-7.133 c -0.14,0.172 -0.392,0.195 -0.561,0.056 -0.171,-0.142 -0.195,-0.392 -0.053,-0.562 0.22,-0.27 0.423,-0.53 0.591,-0.787 l -0.357,-0.057 c -16.495,-2.788 -24.391,-0.898 -28.11,1.179 -0.193,0.107 -0.436,0.038 -0.543,-0.155 -0.108,-0.192 -0.038,-0.437 0.154,-0.542 5.572,-3.112 15.206,-3.54 28.631,-1.27 l 0.59,0.095 c 0.083,-0.292 0.087,-0.586 -0.024,-0.89 -0.077,-0.209 0.032,-0.44 0.237,-0.514 0.207,-0.075 0.439,0.033 0.512,0.237 0.488,1.328 -0.447,2.461 -1.067,3.21" /></g><g
         style="fill:#b08d3f;fill-opacity:1"
         transform="translate(324.677,585.19)"
         id="g864"><path
           inkscape:connector-curvature="0"
           id="path866"
           style="fill:#b08d3f;fill-opacity:1;fill-rule:nonzero;stroke:none"
           d="m 0,0 c 2.617,0 4.824,-1.856 5.873,-4.593 v -7.498 c -1.049,-2.735 -3.256,-4.59 -5.873,-4.59 -4.537,0 -6.632,3.717 -6.632,8.365 C -6.632,-3.665 -4.537,0 0,0 m -1.221,-19.01 c 3.196,0 5.519,1.514 7.147,3.548 0.173,-0.933 0.64,-2.968 0.933,-3.548 l 7.733,1.453 v 1.224 c -3.844,0 -4.596,0.986 -4.596,6.806 v 22.929 l -8.72,-1.455 v -1.219 c 3.894,0 4.597,-0.99 4.597,-6.799 v -5.032 c -1.75,2.151 -4.191,3.432 -7.094,3.432 -5.524,0 -10.113,-4.772 -10.113,-10.645 0,-5.87 4.589,-10.694 10.113,-10.694" /></g><g
         style="fill:#b08d3f;fill-opacity:1"
         transform="translate(452.645,589.249)"
         id="g868"><path
           inkscape:connector-curvature="0"
           id="path870"
           style="fill:#b08d3f;fill-opacity:1;fill-rule:nonzero;stroke:none"
           d="M 0,0 H -0.509 V 1.362 H 0 C 0.441,1.362 0.651,1.048 0.651,0.676 0.651,0.311 0.441,0 0,0 m 1.836,-1.574 c -0.338,0 -0.766,0.356 -1.074,0.738 l -0.491,0.569 c 0.587,0.077 0.938,0.464 0.938,0.943 0,0.556 -0.447,0.967 -1.166,0.967 H -1.644 V 1.489 c 0.523,0 0.625,-0.127 0.625,-0.911 v -1.241 c 0,-0.782 -0.102,-0.911 -0.625,-0.911 V -1.73 h 1.747 v 0.156 c -0.509,0 -0.612,0.129 -0.612,0.911 v 0.389 h 0.268 L 0.843,-1.73 h 0.859 c -0.446,-0.476 -1.096,-0.775 -1.797,-0.775 -1.366,0 -2.464,1.105 -2.464,2.465 0,1.363 1.098,2.464 2.464,2.464 1.358,0 2.465,-1.101 2.465,-2.464 0,-0.583 -0.198,-1.11 -0.534,-1.534 m -1.931,4.276 c -1.512,0 -2.746,-1.227 -2.746,-2.742 0,-1.514 1.234,-2.745 2.746,-2.745 1.516,0 2.734,1.231 2.734,2.745 0,1.515 -1.218,2.742 -2.734,2.742" /></g><g
         style="fill:#b08d3f;fill-opacity:1"
         transform="translate(239.93,585.19)"
         id="g872"><path
           inkscape:connector-curvature="0"
           id="path874"
           style="fill:#b08d3f;fill-opacity:1;fill-rule:nonzero;stroke:none"
           d="M 0,0 C 3.836,0 4.825,-2.85 4.185,-4.707 H -5.466 C -4.652,-1.856 -2.5,0 0,0 m 0.293,-19.01 c 3.312,0 6.859,1.686 8.894,3.836 l -1.046,1.281 c -1.691,-1.569 -4.479,-2.676 -6.398,-2.676 -5.988,0 -8.253,4.245 -7.555,9.708 H 8.197 c 1.398,5.005 -2.733,9.19 -7.904,9.19 -5.409,0 -10.756,-4.478 -10.756,-10.645 0,-5.87 4.358,-10.694 10.756,-10.694" /></g><g
         style="fill:#b08d3f;fill-opacity:1"
         transform="translate(264.265,585.369)"
         id="g876"><path
           inkscape:connector-curvature="0"
           id="path878"
           style="fill:#b08d3f;fill-opacity:1;fill-rule:nonzero;stroke:none"
           d="m 0,0 c 2.385,0 2.792,-0.812 1.688,-3.436 l -3.723,-9.302 -4.244,9.302 C -7.612,-0.587 -6.975,0 -4.417,0 V 1.161 H -14.706 V 0 c 1.858,0 2.732,-0.874 3.892,-3.436 l 6.688,-14.472 -1.194,-3.515 c -1.744,-4.529 -4.36,-4.529 -4.36,-6.798 0,-1.457 1.105,-1.92 1.919,-1.92 0.929,0 1.684,0.985 2.151,2.152 L 4.014,-3.436 C 5.058,-0.874 6.338,0 8.14,0 V 1.161 H 0 Z" /></g><g
         style="fill:#b08d3f;fill-opacity:1"
         transform="translate(446.001,578.098)"
         id="g880"><path
           inkscape:connector-curvature="0"
           id="path882"
           style="fill:#b08d3f;fill-opacity:1;fill-rule:nonzero;stroke:none"
           d="m 0,0 -2.791,1.513 c -2.557,1.394 -3.542,2.149 -3.542,3.544 0,1.454 0.985,2.504 2.962,2.504 2.963,0 4.71,-2.446 4.71,-4.887 H 2.56 V 9.421 H 1.339 c 0,-3.024 -0.871,0 -5.23,0 -3.024,0 -5.932,-2.15 -5.932,-5.291 0,-1.862 1.047,-4.306 3.897,-5.811 l 3.196,-1.75 c 2.033,-1.049 3.255,-2.096 3.255,-3.542 0,-1.63 -1.394,-2.969 -3.255,-2.969 -4.185,0 -6.4,3.894 -6.4,6.511 h -1.16 v -8.486 h 1.16 c 0,4.129 2.215,0 6.227,0 3.776,0 6.913,2.5 6.913,6.34 C 4.01,-3.49 2.56,-1.448 0,0" /></g><g
         style="fill:#b08d3f;fill-opacity:1"
         transform="translate(222.971,575.193)"
         id="g884"><path
           inkscape:connector-curvature="0"
           id="path886"
           style="fill:#b08d3f;fill-opacity:1;fill-rule:nonzero;stroke:none"
           d="m 0,0 v 3.664 c 0,4.937 -2.325,8.662 -7.555,8.662 -3.841,0 -6.512,-2.21 -8.084,-4.185 -0.174,1.223 -0.697,3.601 -0.987,4.185 l -7.73,-1.455 V 9.649 c 3.836,0 4.591,-0.928 4.591,-6.744 V 0 c 0,-5.375 -0.651,-6.625 -3.777,-6.783 v -1.245 h 11.972 v 1.243 c -3.602,0 -4.069,0.795 -4.069,6.785 v 3.777 c 0,3.195 3.49,5.811 6.686,5.811 3.489,0 4.826,-2.441 4.826,-6.219 V 0 c 0,-5.817 -0.813,-6.785 -4.592,-6.785 V -8.028 H 4.592 v 1.243 C 0.698,-6.785 0,-5.817 0,0" /></g><g
         style="fill:#b08d3f;fill-opacity:1"
         transform="translate(308.3,587.519)"
         id="g888"><path
           inkscape:connector-curvature="0"
           id="path890"
           style="fill:#b08d3f;fill-opacity:1;fill-rule:nonzero;stroke:none"
           d="m 0,0 c -2.174,0 -4.617,-1.871 -5.714,-4.21 v 0.025 C -5.891,-2.962 -6.417,-0.583 -6.706,0 l -7.731,-1.455 v -1.221 c 3.838,0 4.591,-0.929 4.591,-6.745 v -2.905 c 0,-5.816 -0.753,-6.785 -4.591,-6.785 v -1.242 h 13.312 v 1.242 c -3.896,0 -4.589,0.969 -4.589,6.785 v 3.529 c 0.188,4.393 2.969,6.436 4.184,6.436 1.093,0 1.749,-0.704 1.749,-1.945 0,-1.121 0.872,-2.123 1.908,-2.123 1.693,0 2.188,1.475 2.188,2.776 C 4.315,-2.182 3.004,0 0,0" /></g><g
         style="fill:#b08d3f;fill-opacity:1"
         transform="translate(284.894,571.82)"
         id="g892"><path
           inkscape:connector-curvature="0"
           id="path894"
           style="fill:#b08d3f;fill-opacity:1;fill-rule:nonzero;stroke:none"
           d="m 0,0 c -2.676,-2.384 -4.07,-2.792 -5.293,-2.792 -1.453,0 -2.731,1.11 -2.731,2.963 0,2.564 2.498,4.477 8.024,5.758 z M 6.615,-2.785 C 6.262,-3.044 5.852,-3.259 5.464,-3.259 c -0.874,0 -1.336,0.815 -1.336,2.269 v 8.78 c 0,5.524 -2.326,7.909 -7.965,7.909 -3.723,0 -7.383,-1.86 -7.383,-4.653 0,-1.163 0.87,-2.032 2.036,-2.032 1.104,0 1.974,0.869 1.974,2.032 0,1.862 1.978,2.793 3.312,2.793 3.317,0 3.898,-1.745 3.898,-6.11 -6.627,-1.16 -12.384,-3.307 -12.384,-8.252 0,-3.084 2.385,-4.885 5.231,-4.885 2.329,0 4.42,0.929 7.268,3.489 0.291,-2.093 1.687,-3.375 3.956,-3.375 1.124,0 2.386,0.499 3.422,1.408 z" /></g><g
         style="fill:#b08d3f;fill-opacity:1"
         transform="translate(182.963,584.313)"
         id="g896"><path
           inkscape:connector-curvature="0"
           id="path898"
           style="fill:#b08d3f;fill-opacity:1;fill-rule:nonzero;stroke:none"
           d="M 0,0 H 0.001 C 0.52,0.528 1.229,0.883 2.02,0.982 V 2.431 H -5.424 V 1.056 c 2.557,0 2.731,-0.933 1.684,-3.436 l -3.893,-9.302 -4.127,9.302 c -1.165,2.795 -0.816,3.436 1.859,3.436 V 2.431 H -20.247 V 1.056 c 1.974,0 2.905,-0.933 4.009,-3.436 l 6.626,-14.767 h 2.061 l 6.136,14.767 c 0.423,1.035 0.848,1.788 1.364,2.323 C -0.034,-0.039 -0.019,-0.019 0,0" /></g><g
         style="fill:#b08d3f;fill-opacity:1"
         transform="translate(197.138,568.42)"
         id="g900"><path
           inkscape:connector-curvature="0"
           id="path902"
           style="fill:#b08d3f;fill-opacity:1;fill-rule:nonzero;stroke:none"
           d="m 0,0 c -0.128,0.009 -0.254,0.018 -0.374,0.028 -2.669,0.283 -3.242,1.687 -3.242,6.745 v 0.484 h -0.009 v 11.842 l -7.201,-0.775 v -1.449 c 2.575,-0.388 3.07,-1.906 3.07,-6.629 V 6.773 c 0,-5.816 -0.753,-6.804 -4.59,-6.804 v -1.223 h 13.32 v 1.223 C 0.621,-0.031 0.302,-0.018 0,0 m -5.72,23.668 c 1.398,0 2.559,1.162 2.559,2.615 0,1.398 -1.161,2.556 -2.559,2.556 -1.395,0 -2.556,-1.158 -2.556,-2.556 0,-1.453 1.161,-2.615 2.556,-2.615" /></g><g
         style="fill:#b08d3f;fill-opacity:1"
         transform="translate(422.236,585.19)"
         id="g904"><path
           inkscape:connector-curvature="0"
           id="path906"
           style="fill:#b08d3f;fill-opacity:1;fill-rule:nonzero;stroke:none"
           d="M 0,0 C 3.838,0 4.828,-2.85 4.187,-4.707 H -5.464 C -4.649,-1.856 -2.498,0 0,0 m 0.293,-19.01 c 3.314,0 6.859,1.686 8.896,3.836 l -1.048,1.281 c -1.689,-1.569 -4.478,-2.676 -6.395,-2.676 -5.99,0 -8.255,4.245 -7.558,9.708 h 14.01 c 1.4,5.005 -2.733,9.19 -7.905,9.19 -5.408,0 -10.753,-4.478 -10.753,-10.645 0,-5.87 4.359,-10.694 10.753,-10.694" /></g><g
         style="fill:#b08d3f;fill-opacity:1"
         transform="translate(405.281,575.193)"
         id="g908"><path
           inkscape:connector-curvature="0"
           id="path910"
           style="fill:#b08d3f;fill-opacity:1;fill-rule:nonzero;stroke:none"
           d="m 0,0 v 3.664 c 0,4.937 -2.328,8.662 -7.558,8.662 -3.841,0 -6.511,-2.21 -8.083,-4.185 -0.175,1.223 -0.697,3.601 -0.986,4.185 l -7.73,-1.455 V 9.649 c 3.835,0 4.59,-0.928 4.59,-6.744 V 0 c 0,-5.375 -0.652,-6.625 -3.776,-6.783 v -1.245 h 11.972 v 1.243 c -3.602,0 -4.07,0.795 -4.07,6.785 v 3.777 c 0,3.195 3.49,5.811 6.686,5.811 3.488,0 4.827,-2.441 4.827,-6.219 V 0 c 0,-5.817 -0.815,-6.785 -4.594,-6.785 v -1.243 h 13.31 v 1.243 C 0.695,-6.785 0,-5.817 0,0" /></g><g
         style="fill:#b08d3f;fill-opacity:1"
         transform="translate(365.27,584.313)"
         id="g912"><path
           inkscape:connector-curvature="0"
           id="path914"
           style="fill:#b08d3f;fill-opacity:1;fill-rule:nonzero;stroke:none"
           d="M 0,0 H 0.001 C 0.521,0.528 1.23,0.883 2.02,0.982 V 2.431 H -5.423 V 1.056 c 2.556,0 2.73,-0.933 1.683,-3.436 l -3.894,-9.302 -4.125,9.302 c -1.166,2.795 -0.816,3.436 1.859,3.436 V 2.431 H -20.247 V 1.056 c 1.975,0 2.906,-0.933 4.009,-3.436 l 6.627,-14.767 h 2.06 l 6.137,14.767 c 0.422,1.035 0.848,1.788 1.364,2.323 C -0.033,-0.039 -0.018,-0.019 0,0" /></g><g
         style="fill:#b08d3f;fill-opacity:1"
         transform="translate(379.446,568.42)"
         id="g916"><path
           inkscape:connector-curvature="0"
           id="path918"
           style="fill:#b08d3f;fill-opacity:1;fill-rule:nonzero;stroke:none"
           d="m 0,0 c -0.129,0.009 -0.254,0.018 -0.374,0.028 -2.671,0.283 -3.242,1.687 -3.242,6.745 v 0.484 h -0.008 v 11.842 l -7.202,-0.775 v -1.449 c 2.575,-0.388 3.069,-1.906 3.069,-6.629 V 6.773 c 0,-5.816 -0.753,-6.804 -4.589,-6.804 V -1.254 H 0.973 v 1.223 C 0.621,-0.031 0.303,-0.018 0,0 m -5.721,23.668 c 1.399,0 2.559,1.162 2.559,2.615 0,1.398 -1.16,2.556 -2.559,2.556 -1.394,0 -2.556,-1.158 -2.556,-2.556 0,-1.453 1.162,-2.615 2.556,-2.615" /></g></g></g></svg>