<svg xmlns="http://www.w3.org/2000/svg" viewBox="0 0 900 620" role="img" aria-label="Gold globe with sunrise arc">
  <defs>
    <radialGradient id="sunGlow" cx="50%" cy="88%" r="35%">
      <stop offset="0%" stop-color="#d4a22d" stop-opacity="0.55"/>
      <stop offset="35%" stop-color="#d4a22d" stop-opacity="0.20"/>
      <stop offset="100%" stop-color="#d4a22d" stop-opacity="0"/>
    </radialGradient>
    <linearGradient id="goldLine" x1="0" y1="0" x2="1" y2="1">
      <stop offset="0%" stop-color="#e0c575" stop-opacity="0.55"/>
      <stop offset="55%" stop-color="#b98a22" stop-opacity="0.8"/>
      <stop offset="100%" stop-color="#e0c575" stop-opacity="0.5"/>
    </linearGradient>
    <pattern id="dotGrid" width="8" height="8" patternUnits="userSpaceOnUse">
      <circle cx="2" cy="2" r="1.25" fill="#c9a24b" opacity="0.55"/>
    </pattern>
    <clipPath id="globeClip">
      <circle cx="450" cy="300" r="250"/>
    </clipPath>
    <filter id="softBlur" x="-30%" y="-30%" width="160%" height="160%">
      <feGaussianBlur stdDeviation="6"/>
    </filter>
  </defs>

  <rect width="900" height="620" fill="none"/>
  <circle cx="450" cy="540" r="180" fill="url(#sunGlow)"/>

  <g opacity="0.72">
    <circle cx="450" cy="300" r="250" fill="none" stroke="url(#goldLine)" stroke-width="2"/>
    <g clip-path="url(#globeClip)" fill="none" stroke="#c9a24b" stroke-width="1" opacity="0.50">
      <ellipse cx="450" cy="300" rx="215" ry="250"/>
      <ellipse cx="450" cy="300" rx="165" ry="250"/>
      <ellipse cx="450" cy="300" rx="105" ry="250"/>
      <ellipse cx="450" cy="300" rx="48" ry="250"/>
      <line x1="450" y1="50" x2="450" y2="550"/>
      <ellipse cx="450" cy="300" rx="250" ry="210"/>
      <ellipse cx="450" cy="300" rx="250" ry="155"/>
      <ellipse cx="450" cy="300" rx="250" ry="95"/>
      <ellipse cx="450" cy="300" rx="250" ry="38"/>
      <line x1="200" y1="300" x2="700" y2="300"/>
    </g>

    <g clip-path="url(#globeClip)" fill="url(#dotGrid)" opacity="0.70">
      <path d="M260 170 C300 120, 375 110, 420 130 C390 160, 355 178, 325 205 C300 190, 280 190, 260 170Z"/>
      <path d="M320 220 C365 195, 410 210, 440 255 C420 300, 365 315, 340 280 C330 258, 305 250, 320 220Z"/>
      <path d="M430 330 C465 350, 488 390, 475 455 C455 500, 425 465, 410 420 C400 380, 405 345, 430 330Z"/>
      <path d="M480 140 C545 105, 625 130, 660 180 C615 200, 565 205, 520 230 C500 200, 475 175, 480 140Z"/>
      <path d="M540 245 C615 210, 685 250, 700 330 C645 360, 590 350, 545 310 C520 285, 515 260, 540 245Z"/>
      <path d="M585 375 C635 355, 680 390, 665 455 C620 485, 575 465, 560 420 C555 395, 565 383, 585 375Z"/>
      <path d="M220 360 C265 345, 310 375, 325 420 C295 455, 245 445, 225 410 C210 390, 205 372, 220 360Z"/>
    </g>
  </g>

  <g opacity="0.82" fill="none" stroke="#b98a22" stroke-linecap="round">
    <path d="M90 555 C260 505, 640 505, 810 555" stroke-width="3"/>
    <path d="M120 570 C295 530, 605 530, 780 570" stroke-width="1.5" opacity="0.55"/>
    <path d="M150 586 C320 552, 580 552, 750 586" stroke-width="1" opacity="0.35"/>
  </g>
</svg>
